<svg xmlns="http://www.w3.org/2000/svg" xmlns:xlink="http://www.w3.org/1999/xlink" version="1.1" data-diagram-type="SEQUENCE" style="width:1044px;height:1141px;background:#FCFCFD;" width="1044px" height="1141px" viewBox="0 0 1044 1141" zoomAndPan="magnify" preserveAspectRatio="none" contentStyleType="text/css"><?plantuml 1.2026.7?><defs/><g font-family="sans-serif" lengthAdjust="spacing"><rect x="0" y="0" width="1044" height="1141" fill="#FCFCFD" style="stroke:none;"/><g class="title" data-source-line="2"><text x="320.709" y="28.132" fill="#1F2937" font-size="14" textLength="401.413" font-weight="700" font-family="Arial">GatoPago V3 — Seguridad multichain sin atomicidad ficticia</text></g><rect x="243.497" y="281.04" width="746.738" height="632.375" fill="#F8FAFC" style="stroke:#F8FAFC;stroke-width:1;" rx="7" ry="7"/><rect x="243.497" y="281.04" width="746.738" height="632.375" fill="none" style="stroke:#829AB1;stroke-width:1.5;" rx="7" ry="7"/><rect x="466.888" y="311.988" width="473.346" height="113.795" fill="#F8FAFC" style="stroke:#F8FAFC;stroke-width:1;" rx="7" ry="7"/><rect x="466.888" y="311.988" width="473.346" height="113.795" fill="none" style="stroke:#829AB1;stroke-width:1.5;" rx="7" ry="7"/><rect x="262.497" y="443.783" width="702.738" height="263.239" fill="#F8FAFC" style="stroke:#F8FAFC;stroke-width:1;" rx="7" ry="7"/><rect x="262.497" y="443.783" width="702.738" height="263.239" fill="none" style="stroke:#829AB1;stroke-width:1.5;" rx="7" ry="7"/><rect x="466.888" y="474.732" width="473.346" height="113.795" fill="#F8FAFC" style="stroke:#F8FAFC;stroke-width:1;" rx="7" ry="7"/><rect x="466.888" y="474.732" width="473.346" height="113.795" fill="none" style="stroke:#829AB1;stroke-width:1.5;" rx="7" ry="7"/><rect x="262.497" y="743.671" width="677.738" height="113.795" fill="#F8FAFC" style="stroke:#F8FAFC;stroke-width:1;" rx="7" ry="7"/><rect x="262.497" y="743.671" width="677.738" height="113.795" fill="none" style="stroke:#829AB1;stroke-width:1.5;" rx="7" ry="7"/><g><title>Persona . guardians</title><rect x="72.151" y="125.296" width="8" height="926.862" fill="#000" fill-opacity="0"/><line x1="75.651" y1="125.296" x2="75.651" y2="1052.158" style="stroke:#9FB3C8;stroke-width:0.5;stroke-dasharray:5,5;"/></g><g><title>App o emergency client</title><rect x="274.997" y="125.296" width="8" height="926.862" fill="#000" fill-opacity="0"/><line x1="278.497" y1="125.296" x2="278.497" y2="1052.158" style="stroke:#9FB3C8;stroke-width:0.5;stroke-dasharray:5,5;"/></g><g><title>Relayers independientes</title><rect x="479.388" y="125.296" width="8" height="926.862" fill="#000" fill-opacity="0"/><line x1="482.888" y1="125.296" x2="482.888" y2="1052.158" style="stroke:#9FB3C8;stroke-width:0.5;stroke-dasharray:5,5;"/></g><g><title>Manifest store</title><rect x="625.087" y="125.296" width="8" height="926.862" fill="#000" fill-opacity="0"/><line x1="628.587" y1="125.296" x2="628.587" y2="1052.158" style="stroke:#9FB3C8;stroke-width:0.5;stroke-dasharray:5,5;"/></g><g><title>Account V3</title><rect x="729.535" y="125.296" width="8" height="926.862" fill="#000" fill-opacity="0"/><line x1="733.035" y1="125.296" x2="733.035" y2="1052.158" style="stroke:#9FB3C8;stroke-width:0.5;stroke-dasharray:5,5;"/></g><g><title>Account V3</title><rect x="825.135" y="125.296" width="8" height="926.862" fill="#000" fill-opacity="0"/><line x1="828.635" y1="125.296" x2="828.635" y2="1052.158" style="stroke:#9FB3C8;stroke-width:0.5;stroke-dasharray:5,5;"/></g><g><title>Account V3</title><rect x="920.734" y="125.296" width="8" height="926.862" fill="#000" fill-opacity="0"/><line x1="924.234" y1="125.296" x2="924.234" y2="1052.158" style="stroke:#9FB3C8;stroke-width:0.5;stroke-dasharray:5,5;"/></g><text x="10" y="122.329" fill="#243B53" font-size="14" textLength="125.303" font-family="Arial">Persona / guardians</text><ellipse cx="75.651" cy="57.697" rx="8" ry="8" fill="#E2E2F0" style="stroke:#334E68;stroke-width:0.5;"/><path d="M75.651,65.697 L75.651,92.697 M62.651,73.697 L88.651,73.697 M75.651,92.697 L62.651,107.697 M75.651,92.697 L88.651,107.697" style="stroke:#334E68;stroke-width:0.5;" fill="none"/><rect x="198.345" y="94.197" width="160.303" height="30.099" fill="#DBEAFE" style="stroke:#627D98;stroke-width:0.5;" rx="7" ry="7"/><text x="205.345" y="114.329" fill="#1F2937" font-size="14" textLength="146.303" font-family="Arial">App o emergency client</text><rect x="398.837" y="78.099" width="168.103" height="46.197" fill="#DCFCE7" style="stroke:#627D98;stroke-width:0.5;" rx="7" ry="7"/><text x="405.837" y="98.23" fill="#1F2937" font-size="14" textLength="154.103" font-family="Arial">Relayers independientes</text><text x="423.344" y="114.329" fill="#1F2937" font-size="14" textLength="119.089" font-family="Arial">GatoPago opcional</text><text x="581.625" y="106.23" fill="#1F2937" font-size="14" textLength="87.924" font-family="Arial">Manifest store</text><text x="576.939" y="122.329" fill="#1F2937" font-size="14" textLength="97.296" font-family="Arial">payload público</text><path d="M610.587,57.099 C610.587,47.099 628.587,47.099 628.587,47.099 C628.587,47.099 646.587,47.099 646.587,57.099 L646.587,83.099 C646.587,93.099 628.587,93.099 628.587,93.099 C628.587,93.099 610.587,93.099 610.587,83.099 L610.587,57.099" style="stroke:#627D98;stroke-width:0.5;" fill="#FCE7F3"/><path d="M610.587,57.099 C610.587,67.099 628.587,67.099 628.587,67.099 C628.587,67.099 646.587,67.099 646.587,57.099" style="stroke:#627D98;stroke-width:0.5;" fill="none"/><rect x="690.235" y="78.099" width="85.6" height="46.197" fill="#EDE9FE" style="stroke:#627D98;stroke-width:0.5;" rx="7" ry="7"/><text x="697.235" y="98.23" fill="#1F2937" font-size="14" textLength="71.6" font-family="Arial">Account V3</text><text x="717.08" y="114.329" fill="#1F2937" font-size="14" textLength="31.91" font-family="Arial">Base</text><rect x="785.835" y="78.099" width="85.6" height="46.197" fill="#EDE9FE" style="stroke:#627D98;stroke-width:0.5;" rx="7" ry="7"/><text x="792.835" y="98.23" fill="#1F2937" font-size="14" textLength="71.6" font-family="Arial">Account V3</text><text x="802.187" y="114.329" fill="#1F2937" font-size="14" textLength="52.896" font-family="Arial">Arbitrum</text><rect x="881.435" y="78.099" width="85.6" height="46.197" fill="#EDE9FE" style="stroke:#627D98;stroke-width:0.5;" rx="7" ry="7"/><text x="888.435" y="98.23" fill="#1F2937" font-size="14" textLength="71.6" font-family="Arial">Account V3</text><text x="891.545" y="114.329" fill="#1F2937" font-size="14" textLength="65.379" font-family="Arial">Avalanche</text><text x="10" y="1065.29" fill="#243B53" font-size="14" textLength="125.303" font-family="Arial">Persona / guardians</text><ellipse cx="75.651" cy="1076.757" rx="8" ry="8" fill="#E2E2F0" style="stroke:#334E68;stroke-width:0.5;"/><path d="M75.651,1084.757 L75.651,1111.757 M62.651,1092.757 L88.651,1092.757 M75.651,1111.757 L62.651,1126.757 M75.651,1111.757 L88.651,1126.757" style="stroke:#334E68;stroke-width:0.5;" fill="none"/><rect x="198.345" y="1052.158" width="160.303" height="30.099" fill="#DBEAFE" style="stroke:#627D98;stroke-width:0.5;" rx="7" ry="7"/><text x="205.345" y="1072.29" fill="#1F2937" font-size="14" textLength="146.303" font-family="Arial">App o emergency client</text><rect x="398.837" y="1052.158" width="168.103" height="46.197" fill="#DCFCE7" style="stroke:#627D98;stroke-width:0.5;" rx="7" ry="7"/><text x="405.837" y="1072.29" fill="#1F2937" font-size="14" textLength="154.103" font-family="Arial">Relayers independientes</text><text x="423.344" y="1088.389" fill="#1F2937" font-size="14" textLength="119.089" font-family="Arial">GatoPago opcional</text><text x="581.625" y="1065.29" fill="#1F2937" font-size="14" textLength="87.924" font-family="Arial">Manifest store</text><text x="576.939" y="1081.389" fill="#1F2937" font-size="14" textLength="97.296" font-family="Arial">payload público</text><path d="M610.587,1094.355 C610.587,1084.355 628.587,1084.355 628.587,1084.355 C628.587,1084.355 646.587,1084.355 646.587,1094.355 L646.587,1120.355 C646.587,1130.355 628.587,1130.355 628.587,1130.355 C628.587,1130.355 610.587,1130.355 610.587,1120.355 L610.587,1094.355" style="stroke:#627D98;stroke-width:0.5;" fill="#FCE7F3"/><path d="M610.587,1094.355 C610.587,1104.355 628.587,1104.355 628.587,1104.355 C628.587,1104.355 646.587,1104.355 646.587,1094.355" style="stroke:#627D98;stroke-width:0.5;" fill="none"/><rect x="690.235" y="1052.158" width="85.6" height="46.197" fill="#EDE9FE" style="stroke:#627D98;stroke-width:0.5;" rx="7" ry="7"/><text x="697.235" y="1072.29" fill="#1F2937" font-size="14" textLength="71.6" font-family="Arial">Account V3</text><text x="717.08" y="1088.389" fill="#1F2937" font-size="14" textLength="31.91" font-family="Arial">Base</text><rect x="785.835" y="1052.158" width="85.6" height="46.197" fill="#EDE9FE" style="stroke:#627D98;stroke-width:0.5;" rx="7" ry="7"/><text x="792.835" y="1072.29" fill="#1F2937" font-size="14" textLength="71.6" font-family="Arial">Account V3</text><text x="802.187" y="1088.389" fill="#1F2937" font-size="14" textLength="52.896" font-family="Arial">Arbitrum</text><rect x="881.435" y="1052.158" width="85.6" height="46.197" fill="#EDE9FE" style="stroke:#627D98;stroke-width:0.5;" rx="7" ry="7"/><text x="888.435" y="1072.29" fill="#1F2937" font-size="14" textLength="71.6" font-family="Arial">Account V3</text><text x="891.545" y="1088.389" fill="#1F2937" font-size="14" textLength="65.379" font-family="Arial">Avalanche</text><polygon points="266.497,150.245,276.497,154.245,266.497,158.245,270.497,154.245" fill="#52606D" style="stroke:#52606D;stroke-width:1;stroke-linejoin:miter;stroke-miterlimit:10;"/><line x1="75.651" y1="154.245" x2="272.497" y2="154.245" style="stroke:#52606D;stroke-width:1;"/><text x="82.651" y="149.49" fill="#1F2937" font-size="13" textLength="178.845" font-family="Arial">propone Security Manifest N+1</text><line x1="278.497" y1="198.142" x2="320.497" y2="198.142" style="stroke:#52606D;stroke-width:1;"/><line x1="320.497" y1="198.142" x2="320.497" y2="211.142" style="stroke:#52606D;stroke-width:1;"/><line x1="279.497" y1="211.142" x2="320.497" y2="211.142" style="stroke:#52606D;stroke-width:1;"/><polygon points="289.497,207.142,279.497,211.142,289.497,215.142,285.497,211.142" fill="#52606D" style="stroke:#52606D;stroke-width:1;stroke-linejoin:miter;stroke-miterlimit:10;"/><text x="285.497" y="178.438" fill="#1F2937" font-size="13" textLength="151.036" font-family="Arial">prevHash + chain scope +</text><text x="285.497" y="193.387" fill="#1F2937" font-size="13" textLength="190.392" font-family="Arial">spend/admin/recovery + timelock</text><polygon points="266.497,236.091,276.497,240.091,266.497,244.091,270.497,240.091" fill="#52606D" style="stroke:#52606D;stroke-width:1;stroke-linejoin:miter;stroke-miterlimit:10;"/><line x1="75.651" y1="240.091" x2="272.497" y2="240.091" style="stroke:#52606D;stroke-width:1;"/><text x="82.651" y="235.336" fill="#1F2937" font-size="13" textLength="138.722" font-family="Arial">threshold firma manifest</text><polygon points="616.587,265.04,626.587,269.04,616.587,273.04,620.587,269.04" fill="#52606D" style="stroke:#52606D;stroke-width:1;stroke-linejoin:miter;stroke-miterlimit:10;"/><line x1="278.497" y1="269.04" x2="622.587" y2="269.04" style="stroke:#52606D;stroke-width:1;"/><text x="285.497" y="264.285" fill="#1F2937" font-size="13" textLength="150.325" font-family="Arial">publica payload inmutable</text><path d="M250.497,281.04 L303.667,281.04 L303.667,287.988 L293.667,297.988 L243.497,297.988 L243.497,288.04 A7,7 0 0 1 250.497,281.04" style="stroke:#829AB1;stroke-width:1.5;" fill="#F8FAFC"/><rect x="243.497" y="281.04" width="746.738" height="632.375" fill="none" style="stroke:#829AB1;stroke-width:1.5;" rx="7" ry="7"/><text x="258.497" y="294.233" fill="#1F2937" font-size="13" textLength="15.171" font-weight="700" font-family="Arial">alt</text><text x="318.667" y="293.357" fill="#1F2937" font-size="11" textLength="108.781" font-weight="700" font-family="Arial">[Cambio planificado]</text><path d="M473.888,311.988 L532.118,311.988 L532.118,318.937 L522.118,328.937 L466.888,328.937 L466.888,318.988 A7,7 0 0 1 473.888,311.988" style="stroke:#829AB1;stroke-width:1.5;" fill="#F8FAFC"/><rect x="466.888" y="311.988" width="473.346" height="113.795" fill="none" style="stroke:#829AB1;stroke-width:1.5;" rx="7" ry="7"/><text x="481.888" y="325.182" fill="#1F2937" font-size="13" textLength="20.23" font-weight="700" font-family="Arial">par</text><text x="547.118" y="324.306" fill="#1F2937" font-size="11" textLength="142.441" font-weight="700" font-family="Arial">[prepare en cada instancia]</text><polygon points="721.035,355.886,731.035,359.886,721.035,363.886,725.035,359.886" fill="#52606D" style="stroke:#52606D;stroke-width:1;stroke-linejoin:miter;stroke-miterlimit:10;"/><line x1="482.888" y1="359.886" x2="727.035" y2="359.886" style="stroke:#52606D;stroke-width:1;"/><text x="489.888" y="355.131" fill="#1F2937" font-size="13" textLength="77.676" font-family="Arial">prepare(N+1)</text><polygon points="816.635,384.834,826.635,388.834,816.635,392.834,820.635,388.834" fill="#52606D" style="stroke:#52606D;stroke-width:1;stroke-linejoin:miter;stroke-miterlimit:10;"/><line x1="482.888" y1="388.834" x2="822.635" y2="388.834" style="stroke:#52606D;stroke-width:1;"/><text x="489.888" y="384.08" fill="#1F2937" font-size="13" textLength="77.676" font-family="Arial">prepare(N+1)</text><polygon points="912.234,413.783,922.234,417.783,912.234,421.783,916.234,417.783" fill="#52606D" style="stroke:#52606D;stroke-width:1;stroke-linejoin:miter;stroke-miterlimit:10;"/><line x1="482.888" y1="417.783" x2="918.234" y2="417.783" style="stroke:#52606D;stroke-width:1;"/><text x="489.888" y="413.028" fill="#1F2937" font-size="13" textLength="77.676" font-family="Arial">prepare(N+1)</text><path d="M269.497,443.783 L322.667,443.783 L322.667,450.732 L312.667,460.732 L262.497,460.732 L262.497,450.783 A7,7 0 0 1 269.497,443.783" style="stroke:#829AB1;stroke-width:1.5;" fill="#F8FAFC"/><rect x="262.497" y="443.783" width="702.738" height="263.239" fill="none" style="stroke:#829AB1;stroke-width:1.5;" rx="7" ry="7"/><text x="277.497" y="456.977" fill="#1F2937" font-size="13" textLength="15.171" font-weight="700" font-family="Arial">alt</text><text x="337.667" y="456.101" fill="#1F2937" font-size="11" textLength="140.878" font-weight="700" font-family="Arial">[todas confirman + finality]</text><path d="M473.888,474.732 L532.118,474.732 L532.118,481.681 L522.118,491.681 L466.888,491.681 L466.888,481.732 A7,7 0 0 1 473.888,474.732" style="stroke:#829AB1;stroke-width:1.5;" fill="#F8FAFC"/><rect x="466.888" y="474.732" width="473.346" height="113.795" fill="none" style="stroke:#829AB1;stroke-width:1.5;" rx="7" ry="7"/><text x="481.888" y="487.926" fill="#1F2937" font-size="13" textLength="20.23" font-weight="700" font-family="Arial">par</text><text x="547.118" y="487.05" fill="#1F2937" font-size="11" textLength="124.062" font-weight="700" font-family="Arial">[commit independiente]</text><polygon points="721.035,518.629,731.035,522.629,721.035,526.629,725.035,522.629" fill="#52606D" style="stroke:#52606D;stroke-width:1;stroke-linejoin:miter;stroke-miterlimit:10;"/><line x1="482.888" y1="522.629" x2="727.035" y2="522.629" style="stroke:#52606D;stroke-width:1;"/><text x="489.888" y="517.875" fill="#1F2937" font-size="13" textLength="74.756" font-family="Arial">commit(N+1)</text><polygon points="816.635,547.578,826.635,551.578,816.635,555.578,820.635,551.578" fill="#52606D" style="stroke:#52606D;stroke-width:1;stroke-linejoin:miter;stroke-miterlimit:10;"/><line x1="482.888" y1="551.578" x2="822.635" y2="551.578" style="stroke:#52606D;stroke-width:1;"/><text x="489.888" y="546.823" fill="#1F2937" font-size="13" textLength="74.756" font-family="Arial">commit(N+1)</text><polygon points="912.234,576.527,922.234,580.527,912.234,584.527,916.234,580.527" fill="#52606D" style="stroke:#52606D;stroke-width:1;stroke-linejoin:miter;stroke-miterlimit:10;"/><line x1="482.888" y1="580.527" x2="918.234" y2="580.527" style="stroke:#52606D;stroke-width:1;"/><text x="489.888" y="575.772" fill="#1F2937" font-size="13" textLength="74.756" font-family="Arial">commit(N+1)</text><line x1="262.497" y1="603.527" x2="965.234" y2="603.527" style="stroke:#829AB1;stroke-width:1;stroke-dasharray:2,2;"/><text x="267.497" y="615.845" fill="#1F2937" font-size="11" textLength="143.623" font-weight="700" font-family="Arial">[alguna chain no responde]</text><polygon points="289.497,638.125,279.497,642.125,289.497,646.125,285.497,642.125" fill="#52606D" style="stroke:#52606D;stroke-width:1;stroke-linejoin:miter;stroke-miterlimit:10;"/><line x1="283.497" y1="642.125" x2="481.888" y2="642.125" style="stroke:#52606D;stroke-width:1;stroke-dasharray:2,2;"/><text x="295.497" y="637.37" fill="#1F2937" font-size="13" textLength="178.502" font-family="Arial">pending / needs_security_sync</text><line x1="278.497" y1="686.022" x2="320.497" y2="686.022" style="stroke:#52606D;stroke-width:1;"/><line x1="320.497" y1="686.022" x2="320.497" y2="699.022" style="stroke:#52606D;stroke-width:1;"/><line x1="279.497" y1="699.022" x2="320.497" y2="699.022" style="stroke:#52606D;stroke-width:1;"/><polygon points="289.497,695.022,279.497,699.022,289.497,703.022,285.497,699.022" fill="#52606D" style="stroke:#52606D;stroke-width:1;stroke-linejoin:miter;stroke-miterlimit:10;"/><text x="285.497" y="666.318" fill="#1F2937" font-size="13" textLength="171.983" font-family="Arial">bloquear flows App/Payments</text><text x="285.497" y="681.267" fill="#1F2937" font-size="13" textLength="174.148" font-family="Arial">no afirmar atomicidad onchain</text><line x1="243.497" y1="722.022" x2="990.234" y2="722.022" style="stroke:#829AB1;stroke-width:1;stroke-dasharray:2,2;"/><text x="248.497" y="734.34" fill="#1F2937" font-size="11" textLength="205.981" font-weight="700" font-family="Arial">[Emergencia por signer comprometido]</text><path d="M269.497,743.671 L327.727,743.671 L327.727,750.62 L317.727,760.62 L262.497,760.62 L262.497,750.671 A7,7 0 0 1 269.497,743.671" style="stroke:#829AB1;stroke-width:1.5;" fill="#F8FAFC"/><rect x="262.497" y="743.671" width="677.738" height="113.795" fill="none" style="stroke:#829AB1;stroke-width:1.5;" rx="7" ry="7"/><text x="277.497" y="756.865" fill="#1F2937" font-size="13" textLength="20.23" font-weight="700" font-family="Arial">par</text><text x="342.727" y="755.989" fill="#1F2937" font-size="11" textLength="143.677" font-weight="700" font-family="Arial">[broadcast freeze/recovery]</text><polygon points="721.035,787.568,731.035,791.568,721.035,795.568,725.035,791.568" fill="#52606D" style="stroke:#52606D;stroke-width:1;stroke-linejoin:miter;stroke-miterlimit:10;"/><line x1="278.497" y1="791.568" x2="727.035" y2="791.568" style="stroke:#52606D;stroke-width:1;"/><text x="285.497" y="786.813" fill="#1F2937" font-size="13" textLength="146.688" font-family="Arial">freeze/scheduleRecovery</text><polygon points="816.635,816.517,826.635,820.517,816.635,824.517,820.635,820.517" fill="#52606D" style="stroke:#52606D;stroke-width:1;stroke-linejoin:miter;stroke-miterlimit:10;"/><line x1="278.497" y1="820.517" x2="822.635" y2="820.517" style="stroke:#52606D;stroke-width:1;"/><text x="285.497" y="815.762" fill="#1F2937" font-size="13" textLength="146.688" font-family="Arial">freeze/scheduleRecovery</text><polygon points="912.234,845.466,922.234,849.466,912.234,853.466,916.234,849.466" fill="#52606D" style="stroke:#52606D;stroke-width:1;stroke-linejoin:miter;stroke-miterlimit:10;"/><line x1="278.497" y1="849.466" x2="918.234" y2="849.466" style="stroke:#52606D;stroke-width:1;"/><text x="285.497" y="844.711" fill="#1F2937" font-size="13" textLength="146.688" font-family="Arial">freeze/scheduleRecovery</text><line x1="278.497" y1="892.415" x2="320.497" y2="892.415" style="stroke:#52606D;stroke-width:1;"/><line x1="320.497" y1="892.415" x2="320.497" y2="905.415" style="stroke:#52606D;stroke-width:1;"/><line x1="279.497" y1="905.415" x2="320.497" y2="905.415" style="stroke:#52606D;stroke-width:1;"/><polygon points="289.497,901.415,279.497,905.415,289.497,909.415,285.497,905.415" fill="#52606D" style="stroke:#52606D;stroke-width:1;stroke-linejoin:miter;stroke-miterlimit:10;"/><text x="285.497" y="887.66" fill="#1F2937" font-size="13" textLength="158.241" font-family="Arial">mostrar resultado por chain</text><path d="M628.438,939.415 L628.438,979.415 A7,7 0 0 0 635.438,986.415 L1021.438,986.415 A7,7 0 0 0 1028.438,979.415 L1028.438,942.415 L1018.438,932.415 L635.438,932.415 A7,7 0 0 0 628.438,939.415" style="stroke:#B7791F;stroke-width:0.5;" fill="#FFFBEB"/><path d="M1018.438,932.415 L1018.438,938.915 A3.5,3.5 0 0 0 1021.938,942.415 L1028.438,942.415 L1018.438,932.415" style="stroke:#B7791F;stroke-width:0.5;" fill="#FFFBEB"/><text x="634.438" y="949.608" fill="#1F2937" font-size="13" textLength="379.393" font-family="Arial">Cada chain mantiene su manifest anterior hasta aceptar el nuevo.</text><text x="634.438" y="964.557" fill="#1F2937" font-size="13" textLength="348.334" font-family="Arial">Una chain caída conserva riesgo residual: ninguna UI puede</text><text x="634.438" y="979.506" fill="#1F2937" font-size="13" textLength="361.328" font-family="Arial">revocar onchain de forma atómica entre redes independientes.</text><path d="M5.8,1004.261 L5.8,1029.261 A7,7 0 0 0 12.8,1036.261 L544.8,1036.261 A7,7 0 0 0 551.8,1029.261 L551.8,1007.261 L541.8,997.261 L12.8,997.261 A7,7 0 0 0 5.8,1004.261" style="stroke:#B7791F;stroke-width:0.5;" fill="#FFFBEB"/><path d="M541.8,997.261 L541.8,1003.761 A3.5,3.5 0 0 0 545.3,1007.261 L551.8,1007.261 L541.8,997.261" style="stroke:#B7791F;stroke-width:0.5;" fill="#FFFBEB"/><text x="129.875" y="1014.455" fill="#1F2937" font-size="13" textLength="176.325" font-family="Arial">Firebase/correo nunca bastan.</text><text x="129.875" y="1029.403" fill="#1F2937" font-size="13" textLength="289.79" font-family="Arial">El payload puede relayarse sin secreto GatoPago.</text><?plantuml-src ZLLDRnit4BtlhvZwrCA9XI8t7meegV81k8dX9cuF1enPxaWYIWwt95UjUigFwD_egRTU_K_wI_h8NQkIx0GHO5bOlfbvy-ODzokhnWsTq6rUYvUpVl2koJOxeLUSmoMl0bq_ety__aa_ocg8jkEE_E2oDMksIWb_m7bhwidI6fnORXesEKGwkPIOWZBDQ3Lmx2nhEY5ErDVdJS-nu7lMJ2VplgT0O15NecPBnbdHNE7ZJthnxkBTrUrFY-U7WLVYU8k4PBMJNhGhO4atkciXzCQ2Xgl9Oe5FkIxUN2-QZZEtd8HEVc2rIqcP4jZBZVQyTG5zzNV_jCwQKEExTWh-Vlv-VjI2CM70Z-jdD_eS6Ik-fXuZ5Z-_NrozdLzyEceUMvlZu6ian_RB0pViMCrwhCaR_lquj1b5fwVVtUjvJdqCVL31S0s6cxUqK-3jwRVD13iCaCrhJciwfSa19lH2fpUQYl8pxhpLMHGJDXAtG6NhnGNposFLypfAMWTNZ1Czav-AxnM6s2Ww5FMPxiTXrGyOcHFupC4Mx5iRg7Sb7BWkD0HiB6JnJqYKy9GHbp8qWZy9dz47g547T7wF_XgTVtC8A7Fux7bH-m40Sk2x4CoXAoOEMjjKgBAqS2FqhdaALHEyj_dGmVNm8SyH-Z-D1qG_1nYP7YD6gkAGdzrgmCAEmzM0q0I7TBBVyO4X2bjTOSDLf4ktQNBIRTgggK6FkAXruTT1qFRIXTyIOVDdbxprECJMeYXNeUB-rHAqKffqhLGNqrLXuGnSDickLAgISBMNR7S-Q2DSOnYkNaQHFsJdpoD-ay0JA66Pki79rUFWKUiln8woVney3k0HfNn8EQ85Z06tBgnTMnsbA46DXYnKqbJsJqebP7fHx3xE48RBI2QKXjs24Pv9jCYqXYfCRAJFg2AET91DE4EA3piN6BxxgwGBcYHkcAALjAhEiDt0xfmK1YYc-V06gohLAxWcWa76QMo4Lymob1tdVFUtBykC_h2Q4V3ZY_kiT4QbiVtsnllZIRKW2hoqKKh7CnDYb03UYgHjQKSB_ONRNHULq-XTZfXmUMd1fb5osBtbzch-1m00?></g></svg>