<svg xmlns="http://www.w3.org/2000/svg" xmlns:xlink="http://www.w3.org/1999/xlink" version="1.1" data-diagram-type="SEQUENCE" style="width:1240px;height:932px;background:#FCFCFD;" width="1240px" height="932px" viewBox="0 0 1240 932" zoomAndPan="magnify" preserveAspectRatio="none" contentStyleType="text/css"><?plantuml 1.2026.7?><defs/><g font-family="sans-serif" lengthAdjust="spacing"><rect x="0" y="0" width="1240" height="932" fill="#FCFCFD" style="stroke:none;"/><g class="title" data-source-line="2"><text x="468.542" y="28.132" fill="#1F2937" font-size="14" textLength="301.868" font-weight="700" font-family="Arial">GatoPago V3 — Sacar la cuenta de GatoPago</text></g><rect x="23.072" y="671.223" width="546.083" height="84.846" fill="#F8FAFC" style="stroke:#F8FAFC;stroke-width:1;" rx="7" ry="7"/><rect x="23.072" y="671.223" width="546.083" height="84.846" fill="none" style="stroke:#829AB1;stroke-width:1.5;" rx="7" ry="7"/><g><title>Persona</title><rect x="35.572" y="123.197" width="8" height="721.718" fill="#000" fill-opacity="0"/><line x1="39.072" y1="123.197" x2="39.072" y2="844.916" style="stroke:#9FB3C8;stroke-width:0.5;stroke-dasharray:5,5;"/></g><g><title>App Web</title><rect x="315.364" y="123.197" width="8" height="721.718" fill="#000" fill-opacity="0"/><line x1="318.864" y1="123.197" x2="318.864" y2="844.916" style="stroke:#9FB3C8;stroke-width:0.5;stroke-dasharray:5,5;"/></g><g><title>App Worker</title><rect x="549.655" y="123.197" width="8" height="721.718" fill="#000" fill-opacity="0"/><line x1="553.155" y1="123.197" x2="553.155" y2="844.916" style="stroke:#9FB3C8;stroke-width:0.5;stroke-dasharray:5,5;"/></g><g><title>Cuenta V3</title><rect x="643.689" y="123.197" width="8" height="721.718" fill="#000" fill-opacity="0"/><line x1="647.189" y1="123.197" x2="647.189" y2="844.916" style="stroke:#9FB3C8;stroke-width:0.5;stroke-dasharray:5,5;"/></g><g><title>Wallet . multisig externa</title><rect x="775.072" y="123.197" width="8" height="721.718" fill="#000" fill-opacity="0"/><line x1="778.572" y1="123.197" x2="778.572" y2="844.916" style="stroke:#9FB3C8;stroke-width:0.5;stroke-dasharray:5,5;"/></g><g><title>Emergency client . CLI</title><rect x="943.792" y="123.197" width="8" height="721.718" fill="#000" fill-opacity="0"/><line x1="947.292" y1="123.197" x2="947.292" y2="844.916" style="stroke:#9FB3C8;stroke-width:0.5;stroke-dasharray:5,5;"/></g><g><title>RPC . bundler p.blico</title><rect x="1151.36" y="123.197" width="8" height="721.718" fill="#000" fill-opacity="0"/><line x1="1154.86" y1="123.197" x2="1154.86" y2="844.916" style="stroke:#9FB3C8;stroke-width:0.5;stroke-dasharray:5,5;"/></g><text x="10" y="120.23" fill="#243B53" font-size="14" textLength="52.145" font-family="Arial">Persona</text><ellipse cx="39.072" cy="55.599" rx="8" ry="8" fill="#E2E2F0" style="stroke:#334E68;stroke-width:0.5;"/><path d="M39.072,63.599 L39.072,90.599 M26.072,71.599 L52.072,71.599 M39.072,90.599 L26.072,105.599 M39.072,90.599 L52.072,105.599" style="stroke:#334E68;stroke-width:0.5;" fill="none"/><rect x="283.071" y="92.099" width="71.586" height="30.099" fill="#DBEAFE" style="stroke:#627D98;stroke-width:0.5;" rx="7" ry="7"/><text x="290.071" y="112.23" fill="#1F2937" font-size="14" textLength="57.586" font-family="Arial">App Web</text><rect x="509.2" y="92.099" width="87.91" height="30.099" fill="#DCFCE7" style="stroke:#627D98;stroke-width:0.5;" rx="7" ry="7"/><text x="516.2" y="112.23" fill="#1F2937" font-size="14" textLength="73.91" font-family="Arial">App Worker</text><rect x="607.11" y="92.099" width="80.158" height="30.099" fill="#EDE9FE" style="stroke:#627D98;stroke-width:0.5;" rx="7" ry="7"/><text x="614.11" y="112.23" fill="#1F2937" font-size="14" textLength="66.158" font-family="Arial">Cuenta V3</text><rect x="697.269" y="92.099" width="162.606" height="30.099" fill="#EDE9FE" style="stroke:#627D98;stroke-width:0.5;" rx="7" ry="7"/><text x="704.269" y="112.23" fill="#1F2937" font-size="14" textLength="148.606" font-family="Arial">Wallet / multisig externa</text><rect x="869.875" y="92.099" width="154.834" height="30.099" fill="#FEF3C7" style="stroke:#627D98;stroke-width:0.5;" rx="7" ry="7"/><text x="876.875" y="112.23" fill="#1F2937" font-size="14" textLength="140.834" font-family="Arial">Emergency client / CLI</text><rect x="1079.767" y="92.099" width="150.186" height="30.099" fill="#EDE9FE" style="stroke:#627D98;stroke-width:0.5;" rx="7" ry="7"/><text x="1086.767" y="112.23" fill="#1F2937" font-size="14" textLength="136.186" font-family="Arial">RPC / bundler público</text><text x="10" y="858.047" fill="#243B53" font-size="14" textLength="52.145" font-family="Arial">Persona</text><ellipse cx="39.072" cy="869.514" rx="8" ry="8" fill="#E2E2F0" style="stroke:#334E68;stroke-width:0.5;"/><path d="M39.072,877.514 L39.072,904.514 M26.072,885.514 L52.072,885.514 M39.072,904.514 L26.072,919.514 M39.072,904.514 L52.072,919.514" style="stroke:#334E68;stroke-width:0.5;" fill="none"/><rect x="283.071" y="844.916" width="71.586" height="30.099" fill="#DBEAFE" style="stroke:#627D98;stroke-width:0.5;" rx="7" ry="7"/><text x="290.071" y="865.047" fill="#1F2937" font-size="14" textLength="57.586" font-family="Arial">App Web</text><rect x="509.2" y="844.916" width="87.91" height="30.099" fill="#DCFCE7" style="stroke:#627D98;stroke-width:0.5;" rx="7" ry="7"/><text x="516.2" y="865.047" fill="#1F2937" font-size="14" textLength="73.91" font-family="Arial">App Worker</text><rect x="607.11" y="844.916" width="80.158" height="30.099" fill="#EDE9FE" style="stroke:#627D98;stroke-width:0.5;" rx="7" ry="7"/><text x="614.11" y="865.047" fill="#1F2937" font-size="14" textLength="66.158" font-family="Arial">Cuenta V3</text><rect x="697.269" y="844.916" width="162.606" height="30.099" fill="#EDE9FE" style="stroke:#627D98;stroke-width:0.5;" rx="7" ry="7"/><text x="704.269" y="865.047" fill="#1F2937" font-size="14" textLength="148.606" font-family="Arial">Wallet / multisig externa</text><rect x="869.875" y="844.916" width="154.834" height="30.099" fill="#FEF3C7" style="stroke:#627D98;stroke-width:0.5;" rx="7" ry="7"/><text x="876.875" y="865.047" fill="#1F2937" font-size="14" textLength="140.834" font-family="Arial">Emergency client / CLI</text><rect x="1079.767" y="844.916" width="150.186" height="30.099" fill="#EDE9FE" style="stroke:#627D98;stroke-width:0.5;" rx="7" ry="7"/><text x="1086.767" y="865.047" fill="#1F2937" font-size="14" textLength="136.186" font-family="Arial">RPC / bundler público</text><polygon points="306.864,148.146,316.864,152.146,306.864,156.146,310.864,152.146" fill="#52606D" style="stroke:#52606D;stroke-width:1;stroke-linejoin:miter;stroke-miterlimit:10;"/><line x1="39.072" y1="152.146" x2="312.864" y2="152.146" style="stroke:#52606D;stroke-width:1;"/><text x="46.072" y="147.391" fill="#1F2937" font-size="13" textLength="71.532" font-family="Arial">iniciar salida</text><polygon points="541.155,177.095,551.155,181.095,541.155,185.095,545.155,181.095" fill="#52606D" style="stroke:#52606D;stroke-width:1;stroke-linejoin:miter;stroke-miterlimit:10;"/><line x1="318.864" y1="181.095" x2="547.155" y2="181.095" style="stroke:#52606D;stroke-width:1;"/><text x="325.864" y="176.34" fill="#1F2937" font-size="13" textLength="200.884" font-family="Arial">solicitar Portable Account Package</text><polygon points="329.864,220.992,319.864,224.992,329.864,228.992,325.864,224.992" fill="#52606D" style="stroke:#52606D;stroke-width:1;stroke-linejoin:miter;stroke-miterlimit:10;"/><line x1="323.864" y1="224.992" x2="552.155" y2="224.992" style="stroke:#52606D;stroke-width:1;stroke-dasharray:2,2;"/><text x="335.864" y="205.289" fill="#1F2937" font-size="13" textLength="203.779" font-family="Arial">manifests, addresses, codehashes,</text><text x="335.864" y="220.237" fill="#1F2937" font-size="13" textLength="135.846" font-family="Arial">chains y llaves públicas</text><polygon points="50.072,249.941,40.072,253.941,50.072,257.941,46.072,253.941" fill="#52606D" style="stroke:#52606D;stroke-width:1;stroke-linejoin:miter;stroke-miterlimit:10;"/><line x1="44.072" y1="253.941" x2="317.864" y2="253.941" style="stroke:#52606D;stroke-width:1;stroke-dasharray:2,2;"/><text x="56.072" y="249.186" fill="#1F2937" font-size="13" textLength="153.899" font-family="Arial">descarga JSON verificable</text><polygon points="766.572,278.89,776.572,282.89,766.572,286.89,770.572,282.89" fill="#52606D" style="stroke:#52606D;stroke-width:1;stroke-linejoin:miter;stroke-miterlimit:10;"/><line x1="39.072" y1="282.89" x2="772.572" y2="282.89" style="stroke:#52606D;stroke-width:1;"/><text x="46.072" y="278.135" fill="#1F2937" font-size="13" textLength="199.469" font-family="Arial">crea/controla signer independiente</text><polygon points="306.864,307.838,316.864,311.838,306.864,315.838,310.864,311.838" fill="#52606D" style="stroke:#52606D;stroke-width:1;stroke-linejoin:miter;stroke-miterlimit:10;"/><line x1="39.072" y1="311.838" x2="312.864" y2="311.838" style="stroke:#52606D;stroke-width:1;"/><text x="46.072" y="307.083" fill="#1F2937" font-size="13" textLength="255.792" font-family="Arial">agregar ECDSA/ERC-1271/passkey externa</text><polygon points="635.189,336.787,645.189,340.787,635.189,344.787,639.189,340.787" fill="#52606D" style="stroke:#52606D;stroke-width:1;stroke-linejoin:miter;stroke-miterlimit:10;"/><line x1="318.864" y1="340.787" x2="641.189" y2="340.787" style="stroke:#52606D;stroke-width:1;"/><text x="325.864" y="336.032" fill="#1F2937" font-size="13" textLength="239.211" font-family="Arial">operación autorizada por threshold actual</text><polygon points="329.864,365.736,319.864,369.736,329.864,373.736,325.864,369.736" fill="#52606D" style="stroke:#52606D;stroke-width:1;stroke-linejoin:miter;stroke-miterlimit:10;"/><line x1="323.864" y1="369.736" x2="646.189" y2="369.736" style="stroke:#52606D;stroke-width:1;stroke-dasharray:2,2;"/><text x="335.864" y="364.981" fill="#1F2937" font-size="13" textLength="104.787" font-family="Arial">validator instalado</text><polygon points="766.572,394.685,776.572,398.685,766.572,402.685,770.572,398.685" fill="#52606D" style="stroke:#52606D;stroke-width:1;stroke-linejoin:miter;stroke-miterlimit:10;"/><line x1="39.072" y1="398.685" x2="772.572" y2="398.685" style="stroke:#52606D;stroke-width:1;"/><text x="46.072" y="393.93" fill="#1F2937" font-size="13" textLength="219.692" font-family="Arial">firma operación self-funded de prueba</text><polygon points="1142.86,423.633,1152.86,427.633,1142.86,431.633,1146.86,427.633" fill="#52606D" style="stroke:#52606D;stroke-width:1;stroke-linejoin:miter;stroke-miterlimit:10;"/><line x1="778.572" y1="427.633" x2="1148.86" y2="427.633" style="stroke:#52606D;stroke-width:1;"/><text x="785.572" y="422.878" fill="#1F2937" font-size="13" textLength="180.648" font-family="Arial">UserOperation/tx sin GatoPago</text><polygon points="658.189,452.582,648.189,456.582,658.189,460.582,654.189,456.582" fill="#52606D" style="stroke:#52606D;stroke-width:1;stroke-linejoin:miter;stroke-miterlimit:10;"/><line x1="652.189" y1="456.582" x2="1153.86" y2="456.582" style="stroke:#52606D;stroke-width:1;"/><text x="664.189" y="451.827" fill="#1F2937" font-size="13" textLength="105.155" font-family="Arial">validate + execute</text><polygon points="50.072,481.531,40.072,485.531,50.072,489.531,46.072,485.531" fill="#52606D" style="stroke:#52606D;stroke-width:1;stroke-linejoin:miter;stroke-miterlimit:10;"/><line x1="44.072" y1="485.531" x2="646.189" y2="485.531" style="stroke:#52606D;stroke-width:1;stroke-dasharray:2,2;"/><text x="56.072" y="480.776" fill="#1F2937" font-size="13" textLength="186.481" font-family="Arial">prueba de control independiente</text><polygon points="935.292,510.479,945.292,514.479,935.292,518.479,939.292,514.479" fill="#52606D" style="stroke:#52606D;stroke-width:1;stroke-linejoin:miter;stroke-miterlimit:10;"/><line x1="39.072" y1="514.479" x2="941.292" y2="514.479" style="stroke:#52606D;stroke-width:1;"/><text x="46.072" y="509.725" fill="#1F2937" font-size="13" textLength="138.76" font-family="Arial">importa paquete público</text><polygon points="1142.86,539.428,1152.86,543.428,1142.86,547.428,1146.86,543.428" fill="#52606D" style="stroke:#52606D;stroke-width:1;stroke-linejoin:miter;stroke-miterlimit:10;"/><line x1="947.292" y1="543.428" x2="1148.86" y2="543.428" style="stroke:#52606D;stroke-width:1;"/><text x="954.292" y="538.673" fill="#1F2937" font-size="13" textLength="145.253" font-family="Arial">consulta todas las chains</text><polygon points="958.292,568.377,948.292,572.377,958.292,576.377,954.292,572.377" fill="#52606D" style="stroke:#52606D;stroke-width:1;stroke-linejoin:miter;stroke-miterlimit:10;"/><line x1="952.292" y1="572.377" x2="1153.86" y2="572.377" style="stroke:#52606D;stroke-width:1;stroke-dasharray:2,2;"/><text x="964.292" y="567.622" fill="#1F2937" font-size="13" textLength="183.568" font-family="Arial">codehash + seguridad + activos</text><polygon points="935.292,597.326,945.292,601.326,935.292,605.326,939.292,601.326" fill="#52606D" style="stroke:#52606D;stroke-width:1;stroke-linejoin:miter;stroke-miterlimit:10;"/><line x1="39.072" y1="601.326" x2="941.292" y2="601.326" style="stroke:#52606D;stroke-width:1;"/><text x="46.072" y="596.571" fill="#1F2937" font-size="13" textLength="228.3" font-family="Arial">retirar asistencia / cambiar impl / sweep</text><polygon points="658.189,626.274,648.189,630.274,658.189,634.274,654.189,630.274" fill="#52606D" style="stroke:#52606D;stroke-width:1;stroke-linejoin:miter;stroke-miterlimit:10;"/><line x1="652.189" y1="630.274" x2="946.292" y2="630.274" style="stroke:#52606D;stroke-width:1;"/><text x="664.189" y="625.52" fill="#1F2937" font-size="13" textLength="235.562" font-family="Arial">operaciones firmadas sin App/paymaster</text><polygon points="935.292,655.223,945.292,659.223,935.292,663.223,939.292,659.223" fill="#52606D" style="stroke:#52606D;stroke-width:1;stroke-linejoin:miter;stroke-miterlimit:10;"/><line x1="647.189" y1="659.223" x2="941.292" y2="659.223" style="stroke:#52606D;stroke-width:1;stroke-dasharray:2,2;"/><text x="654.189" y="654.468" fill="#1F2937" font-size="13" textLength="70.808" font-family="Arial">confirmadas</text><path d="M30.072,671.223 L88.283,671.223 L88.283,678.172 L78.283,688.172 L23.072,688.172 L23.072,678.223 A7,7 0 0 1 30.072,671.223" style="stroke:#829AB1;stroke-width:1.5;" fill="#F8FAFC"/><rect x="23.072" y="671.223" width="546.083" height="84.846" fill="none" style="stroke:#829AB1;stroke-width:1.5;" rx="7" ry="7"/><text x="38.072" y="684.417" fill="#1F2937" font-size="13" textLength="20.211" font-weight="700" font-family="Arial">opt</text><text x="103.283" y="683.541" fill="#1F2937" font-size="11" textLength="116.128" font-weight="700" font-family="Arial">[Cerrar perfil offchain]</text><polygon points="306.864,715.121,316.864,719.121,306.864,723.121,310.864,719.121" fill="#52606D" style="stroke:#52606D;stroke-width:1;stroke-linejoin:miter;stroke-miterlimit:10;"/><line x1="39.072" y1="719.121" x2="312.864" y2="719.121" style="stroke:#52606D;stroke-width:1;"/><text x="46.072" y="714.366" fill="#1F2937" font-size="13" textLength="178.458" font-family="Arial">revocar sesiones y borrar perfil</text><polygon points="541.155,744.069,551.155,748.069,541.155,752.069,545.155,748.069" fill="#52606D" style="stroke:#52606D;stroke-width:1;stroke-linejoin:miter;stroke-miterlimit:10;"/><line x1="318.864" y1="748.069" x2="547.155" y2="748.069" style="stroke:#52606D;stroke-width:1;"/><text x="325.864" y="743.314" fill="#1F2937" font-size="13" textLength="210.292" font-family="Arial">sólo después de verificar cada chain</text><path d="M-9.172,782.069 L-9.172,822.069 A7,7 0 0 0 -2.172,829.069 L987.828,829.069 A7,7 0 0 0 994.828,822.069 L994.828,785.069 L984.828,775.069 L-2.172,775.069 A7,7 0 0 0 -9.172,782.069" style="stroke:#B7791F;stroke-width:0.5;" fill="#FFFBEB"/><path d="M984.828,775.069 L984.828,781.569 A3.5,3.5 0 0 0 988.328,785.069 L994.828,785.069 L984.828,775.069" style="stroke:#B7791F;stroke-width:0.5;" fill="#FFFBEB"/><text x="364.027" y="792.263" fill="#1F2937" font-size="13" textLength="241.357" font-family="Arial">Una passkey no exporta su clave privada.</text><text x="364.027" y="807.212" fill="#1F2937" font-size="13" textLength="249.311" font-family="Arial">Se exporta la cuenta pública y se transfiere</text><text x="364.027" y="822.161" fill="#1F2937" font-size="13" textLength="209.593" font-family="Arial">control a un validator independiente.</text><?plantuml-src VLL1RXiv4BpFApg-RcmXoI603W4KHLWaC691Jkm4MC1eSNeamXoIItAKQ4_xYFt4ddFBrJ_9IrBKp4WQERi70_ImkxgwkffwegqoJIbqbzPIouLlQbCadOpGxvpSd5UERbxGZx__eMjM7CWmgKPiOYeF8KN1Ahb0PtC9qLa-8uxaT-V2SqXQQSysqTd4UxgLvUwUSPvUNLujxcvdhtyHviAzX5tabzsn2xvyUpCRHazRFZSlMbYbN8FFRVJiquVPultaSfXnoyP8eX7LZKawwXN9roIX8zwTpVz2p6e9Ax5gIyfer0VOzF9jcx-_QW4MiycRpyFinNoAX6LZIuF6_CFtfT7AjR8r-NmNl3gjNxIAqlchdNPZqXQ0c4baeqikyaVSTMgDAJe0wOI0kGk9bvZff1DdpkgULr9qiUTxo9gjhYIc-9IuB8F4A3WgLygQunhdFwnQixQHjcGCRoJsx3cs103LyHp38X6UMJ6zkxvwJni9ka8WY1ptifTxJ2e8ZvIpAJZu37En8ATjALvicLMMHnhmAiWABSwcRwudezbYUlxi-Sjd8yyntiks1--rwSqn9WSWLlhXcoLku5tz5vTC7YPEQxIzTgP4T6hO57tIGQNDJl3iU2YHs73fVjrGfKFDnxMYcEgymjobp0laGoDBBlOPMRp3_CVqCKguojb9EpjANw69FMpTKUYWjuwUq6_W8gg1RCSzxCVJLiyyEirFj3xkQUzfsAxssK_a-Sz6KAMtRt48Ekq3-16hnfHS2OyR_BKs6lHmKgTt7Tg8ice2UYfnnbJqniN_81SawG0_SDGnuPjcB9hYUfaN1SmD_erVHFoGxIDZE0jhxyQN2MVPyIZ1LjkQWHi6WWv9spwhA9p7EoGXym5gfGsvgjerNX2TEZd8nkKN5XlNLj_IqXtb8kNHXZzyCovlcMyU_ervaFsE1VGCFxUrCD2Yi0wZSXi9NU6dUzO0_cZpEDkLiGwkQISS6xnkM78uHM-0Tu7GQzbV7tuB-ZS0dADG2cnZfIK8udjhCJLsi3X7Jhl852apB7u2?></g></svg>