<svg xmlns="http://www.w3.org/2000/svg" xmlns:xlink="http://www.w3.org/1999/xlink" version="1.1" data-diagram-type="SEQUENCE" style="width:1223px;height:924px;background:#FCFCFD;" width="1223px" height="924px" viewBox="0 0 1223 924" zoomAndPan="magnify" preserveAspectRatio="none" contentStyleType="text/css"><?plantuml 1.2026.7?><defs/><g font-family="sans-serif" lengthAdjust="spacing"><rect x="0" y="0" width="1223" height="924" fill="#FCFCFD" style="stroke:none;"/><g class="title" data-source-line="2"><text x="407.569" y="28.132" fill="#1F2937" font-size="14" textLength="406.116" font-weight="700" font-family="Arial">GatoPago V3 — Recuperación cuando GatoPago desaparece</text></g><rect x="408.314" y="387.736" width="755.747" height="318.136" fill="#F8FAFC" style="stroke:#F8FAFC;stroke-width:1;" rx="7" ry="7"/><rect x="408.314" y="387.736" width="755.747" height="318.136" fill="none" style="stroke:#829AB1;stroke-width:1.5;" rx="7" ry="7"/><g><title>Persona</title><rect x="35.572" y="123.197" width="8" height="714.47" fill="#000" fill-opacity="0"/><line x1="39.072" y1="123.197" x2="39.072" y2="837.667" style="stroke:#9FB3C8;stroke-width:0.5;stroke-dasharray:5,5;"/></g><g><title>Portable Account Package</title><rect x="164.141" y="123.197" width="8" height="714.47" fill="#000" fill-opacity="0"/><line x1="167.641" y1="123.197" x2="167.641" y2="837.667" style="stroke:#9FB3C8;stroke-width:0.5;stroke-dasharray:5,5;"/></g><g><title>Emergency client . CLI</title><rect x="420.814" y="123.197" width="8" height="714.47" fill="#000" fill-opacity="0"/><line x1="424.314" y1="123.197" x2="424.314" y2="837.667" style="stroke:#9FB3C8;stroke-width:0.5;stroke-dasharray:5,5;"/></g><g><title>Signer independiente</title><rect x="691.255" y="123.197" width="8" height="714.47" fill="#000" fill-opacity="0"/><line x1="694.755" y1="123.197" x2="694.755" y2="837.667" style="stroke:#9FB3C8;stroke-width:0.5;stroke-dasharray:5,5;"/></g><g><title>RPC . bundler p.blico</title><rect x="870.889" y="123.197" width="8" height="714.47" fill="#000" fill-opacity="0"/><line x1="874.389" y1="123.197" x2="874.389" y2="837.667" style="stroke:#9FB3C8;stroke-width:0.5;stroke-dasharray:5,5;"/></g><g><title>Cuenta EVM V3</title><rect x="1013.175" y="123.197" width="8" height="714.47" fill="#000" fill-opacity="0"/><line x1="1016.675" y1="123.197" x2="1016.675" y2="837.667" style="stroke:#9FB3C8;stroke-width:0.5;stroke-dasharray:5,5;"/></g><g><title>Cuenta Stellar C...</title><rect x="1144.561" y="123.197" width="8" height="714.47" fill="#000" fill-opacity="0"/><line x1="1148.061" y1="123.197" x2="1148.061" y2="837.667" style="stroke:#9FB3C8;stroke-width:0.5;stroke-dasharray:5,5;"/></g><text x="10" y="120.23" fill="#243B53" font-size="14" textLength="52.145" font-family="Arial">Persona</text><ellipse cx="39.072" cy="55.599" rx="8" ry="8" fill="#E2E2F0" style="stroke:#334E68;stroke-width:0.5;"/><path d="M39.072,63.599 L39.072,90.599 M26.072,71.599 L52.072,71.599 M39.072,90.599 L26.072,105.599 M39.072,90.599 L52.072,105.599" style="stroke:#334E68;stroke-width:0.5;" fill="none"/><rect x="78.145" y="92.099" width="178.992" height="30.099" fill="#FCE7F3" style="stroke:#627D98;stroke-width:0.5;" rx="7" ry="7"/><text x="85.145" y="112.23" fill="#1F2937" font-size="14" textLength="164.992" font-family="Arial">Portable Account Package</text><rect x="346.897" y="76" width="154.834" height="46.197" fill="#FEF3C7" style="stroke:#627D98;stroke-width:0.5;" rx="7" ry="7"/><text x="353.897" y="96.132" fill="#1F2937" font-size="14" textLength="140.834" font-family="Arial">Emergency client / CLI</text><text x="369.445" y="112.23" fill="#1F2937" font-size="14" textLength="109.737" font-family="Arial">open source local</text><rect x="600.214" y="76" width="189.082" height="46.197" fill="#EDE9FE" style="stroke:#627D98;stroke-width:0.5;" rx="7" ry="7"/><text x="628.59" y="96.132" fill="#1F2937" font-size="14" textLength="132.33" font-family="Arial">Signer independiente</text><text x="607.214" y="112.23" fill="#1F2937" font-size="14" textLength="175.082" font-family="Arial">ECDSA / Ed25519 / multisig</text><rect x="799.296" y="92.099" width="150.186" height="30.099" fill="#EDE9FE" style="stroke:#627D98;stroke-width:0.5;" rx="7" ry="7"/><text x="806.296" y="112.23" fill="#1F2937" font-size="14" textLength="136.186" font-family="Arial">RPC / bundler público</text><rect x="959.482" y="92.099" width="114.386" height="30.099" fill="#EDE9FE" style="stroke:#627D98;stroke-width:0.5;" rx="7" ry="7"/><text x="966.482" y="112.23" fill="#1F2937" font-size="14" textLength="100.386" font-family="Arial">Cuenta EVM V3</text><rect x="1083.868" y="92.099" width="128.386" height="30.099" fill="#EDE9FE" style="stroke:#627D98;stroke-width:0.5;" rx="7" ry="7"/><text x="1090.868" y="112.23" fill="#1F2937" font-size="14" textLength="114.386" font-family="Arial">Cuenta Stellar C...</text><text x="10" y="850.799" fill="#243B53" font-size="14" textLength="52.145" font-family="Arial">Persona</text><ellipse cx="39.072" cy="862.266" rx="8" ry="8" fill="#E2E2F0" style="stroke:#334E68;stroke-width:0.5;"/><path d="M39.072,870.266 L39.072,897.266 M26.072,878.266 L52.072,878.266 M39.072,897.266 L26.072,912.266 M39.072,897.266 L52.072,912.266" style="stroke:#334E68;stroke-width:0.5;" fill="none"/><rect x="78.145" y="837.667" width="178.992" height="30.099" fill="#FCE7F3" style="stroke:#627D98;stroke-width:0.5;" rx="7" ry="7"/><text x="85.145" y="857.799" fill="#1F2937" font-size="14" textLength="164.992" font-family="Arial">Portable Account Package</text><rect x="346.897" y="837.667" width="154.834" height="46.197" fill="#FEF3C7" style="stroke:#627D98;stroke-width:0.5;" rx="7" ry="7"/><text x="353.897" y="857.799" fill="#1F2937" font-size="14" textLength="140.834" font-family="Arial">Emergency client / CLI</text><text x="369.445" y="873.897" fill="#1F2937" font-size="14" textLength="109.737" font-family="Arial">open source local</text><rect x="600.214" y="837.667" width="189.082" height="46.197" fill="#EDE9FE" style="stroke:#627D98;stroke-width:0.5;" rx="7" ry="7"/><text x="628.59" y="857.799" fill="#1F2937" font-size="14" textLength="132.33" font-family="Arial">Signer independiente</text><text x="607.214" y="873.897" fill="#1F2937" font-size="14" textLength="175.082" font-family="Arial">ECDSA / Ed25519 / multisig</text><rect x="799.296" y="837.667" width="150.186" height="30.099" fill="#EDE9FE" style="stroke:#627D98;stroke-width:0.5;" rx="7" ry="7"/><text x="806.296" y="857.799" fill="#1F2937" font-size="14" textLength="136.186" font-family="Arial">RPC / bundler público</text><rect x="959.482" y="837.667" width="114.386" height="30.099" fill="#EDE9FE" style="stroke:#627D98;stroke-width:0.5;" rx="7" ry="7"/><text x="966.482" y="857.799" fill="#1F2937" font-size="14" textLength="100.386" font-family="Arial">Cuenta EVM V3</text><rect x="1083.868" y="837.667" width="128.386" height="30.099" fill="#EDE9FE" style="stroke:#627D98;stroke-width:0.5;" rx="7" ry="7"/><text x="1090.868" y="857.799" fill="#1F2937" font-size="14" textLength="114.386" font-family="Arial">Cuenta Stellar C...</text><path d="M-2.56,143.197 L-2.56,168.197 A7,7 0 0 0 4.44,175.197 L1182.44,175.197 A7,7 0 0 0 1189.44,168.197 L1189.44,146.197 L1179.44,136.197 L4.44,136.197 A7,7 0 0 0 -2.56,143.197" style="stroke:#B7791F;stroke-width:0.5;" fill="#FFFBEB"/><path d="M1179.44,136.197 L1179.44,142.697 A3.5,3.5 0 0 0 1182.94,146.197 L1189.44,146.197 L1179.44,136.197" style="stroke:#B7791F;stroke-width:0.5;" fill="#FFFBEB"/><text x="449.224" y="153.391" fill="#1F2937" font-size="13" textLength="233.384" font-family="Arial">App API, Payments, Firebase, dominios,</text><text x="449.224" y="168.34" fill="#1F2937" font-size="13" textLength="279.684" font-family="Arial">paymaster y bundler GatoPago están apagados.</text><polygon points="412.314,198.043,422.314,202.043,412.314,206.043,416.314,202.043" fill="#52606D" style="stroke:#52606D;stroke-width:1;stroke-linejoin:miter;stroke-miterlimit:10;"/><line x1="39.072" y1="202.043" x2="418.314" y2="202.043" style="stroke:#52606D;stroke-width:1;"/><text x="46.072" y="197.289" fill="#1F2937" font-size="13" textLength="216.772" font-family="Arial">importa package y manifests públicos</text><polygon points="178.641,226.992,168.641,230.992,178.641,234.992,174.641,230.992" fill="#52606D" style="stroke:#52606D;stroke-width:1;stroke-linejoin:miter;stroke-miterlimit:10;"/><line x1="172.641" y1="230.992" x2="423.314" y2="230.992" style="stroke:#52606D;stroke-width:1;"/><text x="184.641" y="226.237" fill="#1F2937" font-size="13" textLength="232.673" font-family="Arial">verifica firmas, generation y codehashes</text><polygon points="412.314,255.941,422.314,259.941,412.314,263.941,416.314,259.941" fill="#52606D" style="stroke:#52606D;stroke-width:1;stroke-linejoin:miter;stroke-miterlimit:10;"/><line x1="167.641" y1="259.941" x2="418.314" y2="259.941" style="stroke:#52606D;stroke-width:1;stroke-dasharray:2,2;"/><text x="174.641" y="255.186" fill="#1F2937" font-size="13" textLength="192.956" font-family="Arial">redes + seguridad + deployments</text><polygon points="862.389,284.89,872.389,288.89,862.389,292.89,866.389,288.89" fill="#52606D" style="stroke:#52606D;stroke-width:1;stroke-linejoin:miter;stroke-miterlimit:10;"/><line x1="424.314" y1="288.89" x2="868.389" y2="288.89" style="stroke:#52606D;stroke-width:1;"/><text x="431.314" y="284.135" fill="#1F2937" font-size="13" textLength="201.659" font-family="Arial">lee estado onchain de cada cuenta</text><polygon points="435.314,313.838,425.314,317.838,435.314,321.838,431.314,317.838" fill="#52606D" style="stroke:#52606D;stroke-width:1;stroke-linejoin:miter;stroke-miterlimit:10;"/><line x1="429.314" y1="317.838" x2="873.389" y2="317.838" style="stroke:#52606D;stroke-width:1;stroke-dasharray:2,2;"/><text x="441.314" y="313.083" fill="#1F2937" font-size="13" textLength="226.173" font-family="Arial">nonces/sequence, signers, assets, TTL</text><polygon points="682.755,342.787,692.755,346.787,682.755,350.787,686.755,346.787" fill="#52606D" style="stroke:#52606D;stroke-width:1;stroke-linejoin:miter;stroke-miterlimit:10;"/><line x1="39.072" y1="346.787" x2="688.755" y2="346.787" style="stroke:#52606D;stroke-width:1;"/><text x="46.072" y="342.032" fill="#1F2937" font-size="13" textLength="196.568" font-family="Arial">autoriza recuperación u operación</text><polygon points="435.314,371.736,425.314,375.736,435.314,379.736,431.314,375.736" fill="#52606D" style="stroke:#52606D;stroke-width:1;stroke-linejoin:miter;stroke-miterlimit:10;"/><line x1="429.314" y1="375.736" x2="693.755" y2="375.736" style="stroke:#52606D;stroke-width:1;stroke-dasharray:2,2;"/><text x="441.314" y="370.981" fill="#1F2937" font-size="13" textLength="246.441" font-family="Arial">firma independiente del dominio GatoPago</text><path d="M415.314,387.736 L468.485,387.736 L468.485,394.685 L458.485,404.685 L408.314,404.685 L408.314,394.736 A7,7 0 0 1 415.314,387.736" style="stroke:#829AB1;stroke-width:1.5;" fill="#F8FAFC"/><rect x="408.314" y="387.736" width="755.747" height="318.136" fill="none" style="stroke:#829AB1;stroke-width:1.5;" rx="7" ry="7"/><text x="423.314" y="400.93" fill="#1F2937" font-size="13" textLength="15.171" font-weight="700" font-family="Arial">alt</text><text x="483.485" y="400.054" fill="#1F2937" font-size="11" textLength="31.163" font-weight="700" font-family="Arial">[EVM]</text><line x1="424.314" y1="435.633" x2="466.314" y2="435.633" style="stroke:#52606D;stroke-width:1;"/><line x1="466.314" y1="435.633" x2="466.314" y2="448.633" style="stroke:#52606D;stroke-width:1;"/><line x1="425.314" y1="448.633" x2="466.314" y2="448.633" style="stroke:#52606D;stroke-width:1;"/><polygon points="435.314,444.633,425.314,448.633,435.314,452.633,431.314,448.633" fill="#52606D" style="stroke:#52606D;stroke-width:1;stroke-linejoin:miter;stroke-miterlimit:10;"/><text x="431.314" y="430.878" fill="#1F2937" font-size="13" textLength="226.167" font-family="Arial">construye UserOperation/tx self-funded</text><polygon points="862.389,473.582,872.389,477.582,862.389,481.582,866.389,477.582" fill="#52606D" style="stroke:#52606D;stroke-width:1;stroke-linejoin:miter;stroke-miterlimit:10;"/><line x1="424.314" y1="477.582" x2="868.389" y2="477.582" style="stroke:#52606D;stroke-width:1;"/><text x="431.314" y="472.827" fill="#1F2937" font-size="13" textLength="83.091" font-family="Arial">simula y envía</text><polygon points="1004.675,502.531,1014.675,506.531,1004.675,510.531,1008.675,506.531" fill="#52606D" style="stroke:#52606D;stroke-width:1;stroke-linejoin:miter;stroke-miterlimit:10;"/><line x1="874.389" y1="506.531" x2="1010.675" y2="506.531" style="stroke:#52606D;stroke-width:1;"/><text x="881.389" y="501.776" fill="#1F2937" font-size="13" textLength="105.155" font-family="Arial">validate + execute</text><polygon points="435.314,531.479,425.314,535.479,435.314,539.479,431.314,535.479" fill="#52606D" style="stroke:#52606D;stroke-width:1;stroke-linejoin:miter;stroke-miterlimit:10;"/><line x1="429.314" y1="535.479" x2="1015.675" y2="535.479" style="stroke:#52606D;stroke-width:1;stroke-dasharray:2,2;"/><text x="441.314" y="530.725" fill="#1F2937" font-size="13" textLength="106.939" font-family="Arial">receipt confirmado</text><line x1="408.314" y1="544.479" x2="1164.061" y2="544.479" style="stroke:#829AB1;stroke-width:1;stroke-dasharray:2,2;"/><text x="413.314" y="556.797" fill="#1F2937" font-size="11" textLength="40.955" font-weight="700" font-family="Arial">[Stellar]</text><line x1="424.314" y1="598.026" x2="466.314" y2="598.026" style="stroke:#52606D;stroke-width:1;"/><line x1="466.314" y1="598.026" x2="466.314" y2="611.026" style="stroke:#52606D;stroke-width:1;"/><line x1="425.314" y1="611.026" x2="466.314" y2="611.026" style="stroke:#52606D;stroke-width:1;"/><polygon points="435.314,607.026,425.314,611.026,435.314,615.026,431.314,611.026" fill="#52606D" style="stroke:#52606D;stroke-width:1;stroke-linejoin:miter;stroke-miterlimit:10;"/><text x="431.314" y="578.322" fill="#1F2937" font-size="13" textLength="147.399" font-family="Arial">restaura TTL si hace falta</text><text x="431.314" y="593.271" fill="#1F2937" font-size="13" textLength="150.281" font-family="Arial">y simula XDR/auth entries</text><polygon points="862.389,635.975,872.389,639.975,862.389,643.975,866.389,639.975" fill="#52606D" style="stroke:#52606D;stroke-width:1;stroke-linejoin:miter;stroke-miterlimit:10;"/><line x1="424.314" y1="639.975" x2="868.389" y2="639.975" style="stroke:#52606D;stroke-width:1;"/><text x="431.314" y="635.22" fill="#1F2937" font-size="13" textLength="169.825" font-family="Arial">envía transacción self-funded</text><polygon points="1136.061,664.923,1146.061,668.923,1136.061,672.923,1140.061,668.923" fill="#52606D" style="stroke:#52606D;stroke-width:1;stroke-linejoin:miter;stroke-miterlimit:10;"/><line x1="874.389" y1="668.923" x2="1142.061" y2="668.923" style="stroke:#52606D;stroke-width:1;"/><text x="881.389" y="664.168" fill="#1F2937" font-size="13" textLength="150.693" font-family="Arial">__check_auth + ejecución</text><polygon points="435.314,693.872,425.314,697.872,435.314,701.872,431.314,697.872" fill="#52606D" style="stroke:#52606D;stroke-width:1;stroke-linejoin:miter;stroke-miterlimit:10;"/><line x1="429.314" y1="697.872" x2="1147.061" y2="697.872" style="stroke:#52606D;stroke-width:1;stroke-dasharray:2,2;"/><text x="441.314" y="693.117" fill="#1F2937" font-size="13" textLength="136.57" font-family="Arial">ledger/meta confirmado</text><polygon points="412.314,736.821,422.314,740.821,412.314,744.821,416.314,740.821" fill="#52606D" style="stroke:#52606D;stroke-width:1;stroke-linejoin:miter;stroke-miterlimit:10;"/><line x1="39.072" y1="740.821" x2="418.314" y2="740.821" style="stroke:#52606D;stroke-width:1;"/><text x="46.072" y="736.066" fill="#1F2937" font-size="13" textLength="192.924" font-family="Arial">conservar cuenta o barrer activos</text><polygon points="50.072,765.77,40.072,769.77,50.072,773.77,46.072,769.77" fill="#52606D" style="stroke:#52606D;stroke-width:1;stroke-linejoin:miter;stroke-miterlimit:10;"/><line x1="44.072" y1="769.77" x2="423.314" y2="769.77" style="stroke:#52606D;stroke-width:1;stroke-dasharray:2,2;"/><text x="56.072" y="765.015" fill="#1F2937" font-size="13" textLength="119.247" font-family="Arial">evidencia exportable</text><path d="M544.432,789.77 L544.432,814.77 A7,7 0 0 0 551.432,821.77 L837.432,821.77 A7,7 0 0 0 844.432,814.77 L844.432,792.77 L834.432,782.77 L551.432,782.77 A7,7 0 0 0 544.432,789.77" style="stroke:#B7791F;stroke-width:0.5;" fill="#FFFBEB"/><path d="M834.432,782.77 L834.432,789.27 A3.5,3.5 0 0 0 837.932,792.77 L844.432,792.77 L834.432,782.77" style="stroke:#B7791F;stroke-width:0.5;" fill="#FFFBEB"/><text x="550.432" y="799.963" fill="#1F2937" font-size="13" textLength="279.646" font-family="Arial">Un JSON o una segunda passkey bajo el mismo</text><text x="550.432" y="814.912" fill="#1F2937" font-size="13" textLength="274.612" font-family="Arial">RP ID no sustituyen este control independiente.</text><?plantuml-src ZLL1ZXit4BpFAzg-MYl12Nom3WO4IGass7W5xTfmW0M45jcIwEMGOv8ZM3xb4Vc07-2JRxxkJ_mI5sSaMQCaXczQJdUnggkQ-yWuPMijj4WRAQLVrQKjaabMw7TEViPhJwz_fQz__qDpKNKbWPLv-En8rUoq_rwa9NB5GPGK1Qla0psUIOZUyMFYI5Npkq15CifKx1A--v1uYPj6IlaQ9pDMzxoMfe7RiqNLdj7u-kfwlfYCRaTTa6afOIrExKXP8pWPqFZgyixvIXn5NmSbPBrYsw3AiRh5cqz7ax-wW3TcxIIGSLe0eJEctBdfU78p0lPK__BisTFd-5NMDfberWrkR9jQqEcRs-dyvUYgYpkVZT6rh9ssgAmUlYojKRxf3fNwOUku1WccwUi_uKMhOrl-JCTD4ciPlFhzVilpSD3jBPnFGdwRYJL6zVQ51T6egcWqk-p1dLq9rDYZtqoG9KVfaVQbSSR77WehV6Vq1TeTPHxZ8J4zV7I4YAnP-zWlC5hAjnP5UoDTl3XnPqYch78ywE3_ZafsPWMSU1nUBBvteFqyCaE28BCoYcbb0hZr2BL8S3Au3u7nMZOSDnAByzQBCpP1a6zwGb7MTJ2QDNuZ7zQt8-doo7OEoOfarL1BtgaD6uSEKgmPkvFTANBT-KKEjH87KTwXHc72RR90dMEKFFpRswlJcUsJDoIkiNJc0uFhwPxMv8z_5FlYyqkRwNGJ3wxsuExHHMosJJc6SBkZ-1HCUHTJg7T2hwA4wse_xq5wZ-dPrSKAqH1zZj3EB1fi5SCQSTk7JuoYPaOlchp3JhQOFSWz8NaFbKWFDP_-RPSIKwNCfT6cVI4soc4VVaG_PC_gm7dEu4CRnWEoWcw-Sxi3mJUJ-G3pte1d2WRv-KyrhGXAWLr4m1exkYFOgpjivP0M2xKHTRzemA7oBLIsrj6nwboi5RsMC2W5st8gsEd_swriaOGjiDeaagSbXu1auEKss-vUeNUF0aLRet5g6FElzg_twUFHvWjSNpdwu-Rw9O1hnytME9rtESPxmUl0R_4YM2fDB3sgvpEwd23w5Ek8_pt8Zikh8vbe2jvsetdoTdm3?></g></svg>